/* XPM */
static char *efafb53ad0374a2bc7f3023c000cb9c65W7gsNloT7M3nsur[] = {
/* columns rows colors chars-per-pixel */
"64 64 26 1 ",
"  c None",
". c black",
"X c #0C6624",
"o c #455A64",
"O c gray38",
"+ c gray50",
"@ c #880015",
"# c #DD2C00",
"$ c #ED1C24",
"% c #FF7F27",
"& c #B97A57",
"* c #22B14C",
"= c #FFF200",
"- c #720899",
"; c #3F48CC",
": c #CD55CF",
"> c #78909C",
", c #00A2E8",
"< c #5487FF",
"1 c gray63",
"2 c gray74",
"3 c #DBA88C",
"4 c #C3C3C3",
"5 c gray88",
"6 c gray96",
"7 c white",
/* pixels */
"                                                                ",
"                                                                ",
"                                                                ",
"                                                                ",
"                                                                ",
"                                                                ",
"                                                                ",
"                                                                ",
"                                                                ",
"                                                                ",
"                                                                ",
"                                                                ",
"                                                                ",
"                   .......                                      ",
"                  .+++++++.                                     ",
"                 .+++OOOOO+.                                    ",
"                 ..+++++++..                                    ",
"                 .1.......1.                                    ",
"                 .111111111.                                    ",
"                 .11111111O.                                    ",
"                 .111OOOOO1.                                    ",
"                 .11111111O.                                    ",
"               ...111OOOOO1....                                 ",
"              .===.1111111.#;;;.                                ",
"             .=====.......#<<<<;.                               ",
"             .======######<<<<<;.                               ",
"             .=====%%%%%%<<<<<<;.                               ",
"             .====%%%%%%<<<<<<<-.                               ",
"             .===%%%%%%<<<<<<<:-.                               ",
"             .==%%%%%%<<<<<<<::-.                               ",
"             .=%%%%%%<<<<<<<:::-.                               ",
"             .%%%%%%<<<<<<<::::-.                               ",
"             .%%%%%<<<<<<<:::::-.                               ",
"             .%%%%<<<<<<<::::::X.                               ",
"             .%%%<<<<<<<::::::*X.                               ",
"             .%%<<<<<<<::::::**X.                               ",
"             .%<<<<<<<::::::***X.                               ",
"             .<<<<<<<::::::****X.                               ",
"             .<<<<<<::::::*****X.                               ",
"             .<<<<<::::::******X.                               ",
"             .<<<<::::::*******@.                               ",
"             .<<<::::::*******$@.                               ",
"             .<<::::::*******$$@.          ........             ",
"             .<::::::**..*...$$@.        ..11111111..           ",
"             .::::::**..***$.$$@.       .11,,,,,,,,11.          ",
"             .:::::**..***$.$$$@.      .1,,,,,,,,,,,,1.         ",
"             .::::**.....$.$$$$&.      ..,,,,,,,,,,,,..         ",
"             .:::***.....$...$3&.      .7..,,,,,,,,..2.         ",
"             .::*******..$$$$33&.      .7 7........522.         ",
"             .:*******$..$$$333&.      .77 77777655522.         ",
"             .*******$$$$$$3333&.      .77777777655522.         ",
"             .******$$$$$$33333&.+     .77777777655522.         ",
"             .*****$$$$$$333333o.+     .77777777655522.         ",
"             .****$$$$$$333333>o.++    . 7777777655522.+++1     ",
"         41++.***$$$$$$333333>>o.++++  .77777777655522.+++114   ",
"          41++.*$$$$$$333333>>>.+++111++.777777765552.+1114444  ",
"           41++..$$$$333333>>..+++11111++.. 7777755..++114  4   ",
"            41+++............+++11144411+++........+++114       ",
"             41+++++++++++++++1114444441111++++++++++114        ",
"             4111111+++++++1111144444444411111111111444         ",
"              4441111111111111144        4444444444444          ",
"               44444444444444444                                ",
"                                                                ",
"                                                                "
};
