/* XPM */
static char *result[] = {
/* columns rows colors chars-per-pixel */
"64 64 56 1 ",
"  c #4B4545",
". c #8F8484",
"X c #948F8C",
"o c #9C918D",
"O c #9E9692",
"+ c #9F9A97",
"@ c #A1948B",
"# c #A09693",
"$ c #A89791",
"% c #A49B94",
"& c #AA9D96",
"* c #A59D9A",
"= c #AA9E9A",
"- c #ACA096",
"; c #A5A09D",
": c #ACA29D",
"> c #B1A59D",
", c #B8A89F",
"< c #A7A3A1",
"1 c #ACA5A2",
"2 c #AEA9A5",
"3 c #ADABA9",
"4 c #B2A6A2",
"5 c #B3AAA4",
"6 c #BAABA4",
"7 c #B3ADAA",
"8 c #BAAEAA",
"9 c #BEB0A7",
"0 c #B6B1AD",
"q c #BCB2AD",
"w c #B5B3B2",
"e c #BCB5B2",
"r c #BDB9B6",
"t c #BEBBBB",
"y c #C0B1A7",
"u c #C1B3AD",
"i c #C4B8AF",
"p c #C2B6B2",
"a c #C3BAB5",
"s c #C9BBB5",
"d c #C3BDBB",
"f c #CABDBA",
"g c #C5C0BE",
"h c #CBC2BE",
"j c #D7C4BF",
"k c #C5C4C3",
"l c #CBC5C2",
"z c #CCC8C6",
"x c #CECCCB",
"c c #D6C5C1",
"v c #D0C9C6",
"b c #D2CDCB",
"n c #D6D0CE",
"m c #DDD3CF",
"M c #D6D6D6",
"N c white",
/* pixels */
"NNNNNNNNNNNNNNNNNNNNNNNNNNNNNNNNNNNNNNNNNNNNNNNNNNNNNNNNNNNNNMNN",
"NNNNNNNNNNNNNNNNNNNNNNNNNNNNNNNNNNNNNNNNNNNNNNNNNNNNNNNNNNNNMNNN",
"NNNNNNNNNNNNNNNNNNNNNNNNNNNNNNNNNNNNNNNNNNNNNNNNNNNNNNNNNNNMNNNN",
"NNNNNNNNNNNNNNNNNNNNNNNNNNNNNNNNNNNNNNNNNNNNNNNNNNNNNNNNNNMNNNNN",
"NNNNNNNNNNNNNNNNNNNNNNNNNNNNNNNNNNNNNNNNNNNNNNNNNNNNNNNNNMNNNNNN",
"NNNNNNNNNNNNNNNNNNNNNNNNNNNNNNNNNNNNNNNNNNNNNNNNNNNNNNNNMNNNNNNN",
"NNNNNNNNNNNNNNNNNNNNNNNNNNNNNNNNNNNNNNNNNNNNNNNNNNNNNNNMNNNNNNNN",
"NNNNNNNNNNNNNNNNNNNNNNNNNNNNNNNNNNNNNNNNNNNNNNNNNNNNNNMNNNNNNNNN",
"NNNNNNNNNNNNNNNNNNNNNNNNNNNNNNNNNNNNNNNNNNNNNNNNNNNNNMNNNNNNNNNN",
"NNNNNNNNNNNNNNNNNNNNNNNNNNNNNNNNNNNNNNNNNNNNNNNNNNNNMNNNNNNNNNNN",
"NNNNNNNNNNNNNNNNNNNNNNNNNNNNNNNNNNNNNNNNNNNNNNNNNNNMNNNNNNNNNNNN",
"NNNNNNNNNNNNNNNNNNNNNNNNNNNNNNNNNNNNNNNNNNNNNNNNNNMNNNNNNNNNNNNN",
"NNNNNNNNNNNNNNNNNNNNNNNNNNNNNNNNNNNNNNNNNNNNNNNNNMNNNNNNNNNNNNNN",
"NNNNNNNNNNNNNNNNNNNNNNNNNNNNNNNNNNNNNNNNNNNNNNNNMNNNNNNNNNNNNNNN",
"NNNNNNNNNNNNNNNNNNNNNNNNNNNNNNNNNNNNNNNNNNNNNNNMNNNNNNNNNNNNNNNN",
"NNNNNNNNNNNNNNNNNNNNNNNNNNNNNNNNNNNNNNNNNNNNNNMNNNNNNNNNNNNNNNNN",
"NNNNNNNNNNNNNNNNNNNNNNNNNNNNNNNNNNNNNNNNNNNNNMNNNNNNNNNNNNNNNNNN",
"NNNNNNNNNNNNNNNNNNNNNNNNNNNNNNNNNNNNNNNNNNNNMNNNNNNNNNNNNNNNNNNN",
"NNNNNNNNNNNNNNNNNNNNNNNNNNNNNNNNNNNNNNNNNNNMNNNNNNNNNNNNNNNNNNNN",
"NNNNNNNNNNNNNNNNNNNNNNNNNNNNNNNNNNNNNNNNNNMNNNNNNNNNNNNNNNNNNNNN",
"NNNNNNNNNNNNNNNNNNNNNNNNNNNNNNNNNNNNNNNNNMNNNNNNNNNNNNNNNNNNNNNN",
"NNNNNNNNNNNNNNNNNNNNNNNNNNNNNNNNNNNNNNNNMNNNNNNNNNNNNNNNNNNNNNNN",
"NNNNNNNNNNNNNNNNNNNNNNNNNNNNNNNNNNNNNNNMNNNNNNNNNNNNNNNNNNNNNNNN",
"NNNNNNNNNNNNNNNNNNNNNNNNNNNNNNNNNNNNNNMNNNNNNNNNNNNNNNNNNNNNNNNN",
"NNNNNNNNNNNNNNNNNNNNNNNNNNNNNNNNNNNNNMNNNNNNNNNNNNNNNNNNNNNNNNNN",
"NNNNNNNNNNNNNNNNNNNNNNNNNNNNNNNNNNNNMNNNNNNNNNNNNNNNNNNNNNNNNNNN",
"NNNNNNNNNNNNNNNNNNNNNNNNNNNNNNNNNNNMNNNNNNNNNNNNNNNNNNNNNNNNNNNN",
"NNNNNNNNNNNNNNNNNNNNNNNNNNNNNNNNNNMNNNNNNNNNNNNNNNNNNNNNNNNNNNNN",
"NNNNNNNNNNNNNNNNNNNNNNNNNNNNNNNNNMNNNNNNNNNNNNNNNNNNNNNNNNNNNNNN",
".................................NNNNNNNNNNNNNNNNNNNNNNNNNNNNNNN",
"                                .NNNNNNNNNNNNNNNNNNNNNNNNNNNNNNN",
"                                .NNNNNNNNNNNNNNNNNNNNNNNNNNNNNNN",
"55t9aieaq*&-*7q8;:3&%:e*X*&=#4  .NNNNNNNNNNNNNNNNNNNNNNNNNNNNNNN",
"05gg7>q760>647843t10t:qr12&<3*  .NNNNNNNNNNNNNNNNNNNNNNNNNNNNNNN",
"9:2527;q5:*,42<:q-7O;;w:41q2#u  .NNNNNNNNNNNNNNNNNNNNNNNNNNNNNNN",
";>-7%++-0>p7<>1r<q1*;*6=Oa7:31  .NNNNNNNNNNNNNNNNNNNNNNNNNNNNNNN",
"5250O-2;>-:2=8X3q0:;=741@2O,14  .NNNNNNNNNNNNNNNNNNNNNNNNNNNNNNN",
";@>0>w>2-2z%:*47;1%4<e&,6<0;<=  .NNNNNNNNNNNNNNNNNNNNNNNNNNNNNNN",
"110;-:+;0,0*w1:=*2123*:14;11=1  .NNNNNNNNNNNNNNNNNNNNNNNNNNNNNNN",
"e;-3%O>5:e4>*74<2<&&15%*:;7o*3  .NNNNNNNNNNNNNNNNNNNNNNNNNNNNNNN",
">e31;2<;1u7e3a**=1<418#=114#*<  .NNNNNNNNNNNNNNNNNNNNNNNNNNNNNNN",
"259;292i74w=4<1e==4112*34=*14#  .NNNNNNNNNNNNNNNNNNNNNNNNNNNNNNN",
"-05>55524$=u434*w::2==*117*1<7  .NNNNNNNNNNNNNNNNNNNNNNNNNNNNNNN",
"h5r77%0>8*734u331421=7e=*$p*we  .NNNNNNNNNNNNNNNNNNNNNNNNNNNNNNN",
"qg3>2,6g4t==t7w=3444#e==d4w8w8  .NNNNNNNNNNNNNNNNNNNNNNNNNNNNNNN",
"eqq<-;>7p44pvp484t<134e=477w=1  .NNNNNNNNNNNNNNNNNNNNNNNNNNNNNNN",
"t0u90>70tsp7w4he4w=88p33wlt4s4  .NNNNNNNNNNNNNNNNNNNNNNNNNNNNNNN",
"a>g57>q7744sn4ep8<34dufd4e4f44  .NNNNNNNNNNNNNNNNNNNNNNNNNNNNNNN",
"0x0gu40adfak*edp48w1287=pl4pue  .NNNNNNNNNNNNNNNNNNNNNNNNNNNNNNN",
">xtqhp1azlf8gdfeeeuhxgypd#wtw1  .NNNNNNNNNNNNNNNNNNNNNNNNNNNNNNN",
"nihne6g5kpuptvke8ae>tdkupkkdpg  .NNNNNNNNNNNNNNNNNNNNNNNNNNNNNNN",
"ftdmM58:relek7zdbd5Mprausplfks  .NNNNNNNNNNNNNNNNNNNNNNNNNNNNNNN",
"dvgqdqaf7at0frggx8ql8pqa4z7ksp  .NNNNNNNNNNNNNNNNNNNNNNNNNNNNNNN",
"jgq:7fl1wseqavkkataaf5qduhzhuk  .NNNNNNNNNNNNNNNNNNNNNNNNNNNNNNN",
"a:8rhe*7wse8hkq0reguujr6uwjd8t  .NNNNNNNNNNNNNNNNNNNNNNNNNNNNNNN",
"wgdae1de4qtddp4vqphzr5ege4cscw  .NNNNNNNNNNNNNNNNNNNNNNNNNNNNNNN",
"-3502geg77qr4w462>77hqei1q8lu5  .NNNNNNNNNNNNNNNNNNNNNNNNNNNNNNN",
"2>t>7:qr823>wd58>e2quty7ah5a8q  .NNNNNNNNNNNNNNNNNNNNNNNNNNNNNNN",
">e9q2052148er7f5>:7er7i7edlee4  .NNNNNNNNNNNNNNNNNNNNNNNNNNNNNNN",
"00g>>55g41dt74q5a3>6g03qqp7dtu  .NNNNNNNNNNNNNNNNNNNNNNNNNNNNNNN",
"572-:275050it>r,10>674ee486>u>  .NNNNNNNNNNNNNNNNNNNNNNNNNNNNNNN",
"u>ru7&:r09gy7et9q7i9de6a4er6d:  .NNNNNNNNNNNNNNNNNNNNNNNNNNNNNNN",
"q00r0:;>-q0rg9qg7>264qd4er5566  .NNNNNNNNNNNNNNNNNNNNNNNNNNNNNNN",
"55520:>62:70erq9>q>116s82f->ed  .NNNNNNNNNNNNNNNNNNNNNNNNNNNNNNN"
};
