/* XPM */
static char *_05d5c83f8774977e8aa6d7af97c6262PfcDzZjYqJEsYFLr[] = {
/* columns rows colors chars-per-pixel */
"64 64 97 2 ",
"   c #4B4545",
".  c #8F8484",
"X  c #948F8C",
"o  c #9C918D",
"O  c #9E9692",
"+  c #9F9A97",
"@  c #9F9A98",
"#  c #A09693",
"$  c #A89791",
"%  c #A49B94",
"&  c #AA9D96",
"*  c #A59D9A",
"=  c #AA9E9A",
"-  c #ACA096",
";  c #A5A09D",
":  c #ACA29D",
">  c #B1A59D",
",  c #B8A89F",
"<  c #A7A3A1",
"1  c #ACA5A2",
"2  c #AEA9A5",
"3  c #ADABA9",
"4  c #B2A6A2",
"5  c #B3AAA4",
"6  c #BAABA4",
"7  c #B3ADAA",
"8  c #BAAEAA",
"9  c #BEB0A7",
"0  c #B6B1AD",
"q  c #BCB2AD",
"w  c #B5B3B2",
"e  c #BCB5B2",
"r  c #BFB8B4",
"t  c #BCB9B6",
"y  c #BDB9B7",
"u  c #BEB8B6",
"i  c #BFBAB8",
"p  c #BDBBBB",
"a  c #BEBBBB",
"s  c #BFBDBD",
"d  c #C1B0AB",
"f  c #C3B0AC",
"g  c #C1B2AE",
"h  c #C2B5AD",
"j  c #C4B8AF",
"k  c #C1B4B0",
"l  c #C4B7B1",
"z  c #C1B6B4",
"x  c #C0B6B5",
"c  c #C3B9B1",
"v  c #C5BAB3",
"b  c #C2B8B4",
"n  c #C0BBB6",
"m  c #C5B8B6",
"M  c #C5BBB7",
"N  c #C8B9B3",
"B  c #C9B9B5",
"V  c #C8BDB7",
"C  c #C3B9B8",
"Z  c #C1BDBB",
"A  c #C4BCBA",
"S  c #C3BEBC",
"D  c #C2BFBF",
"F  c #C5BEBD",
"G  c #C6BEBC",
"H  c #C8BBB9",
"J  c #CABEBA",
"K  c #C5C0BD",
"L  c #C5C1BF",
"P  c #C6C1BE",
"I  c #C6C0BF",
"U  c #C9C0BB",
"Y  c #CCC2BE",
"T  c #CEC3BE",
"R  c #D7C4BF",
"E  c #C7C1C0",
"W  c #C4C3C3",
"Q  c #C6C4C4",
"!  c #C7C6C5",
"~  c #CBC3C1",
"^  c #C8C3C2",
"/  c #CDC3C0",
"(  c #CAC5C3",
")  c #CDC5C0",
"_  c #CDC5C4",
"`  c #CBC8C7",
"'  c #CBC9C7",
"]  c #CDC8C6",
"[  c #CECCCB",
"{  c #D6C5C1",
"}  c #D0C9C6",
"|  c #D2CDCB",
" . c #D6D0CE",
".. c #DDD3CF",
"X. c #D6D4D3",
"o. c gray84",
"O. c white",
/* pixels */
"O.O.O.O.O.O.O.O.O.O.O.O.O.O.O.O.O.O.O.O.O.O.O.O.O.O.O.O.O.O.O.O.O.O.O.O.O.O.O.O.O.O.O.O.O.O.O.O.O.O.O.O.O.O.O.O.O.O.O.O.O.O.O.O.",
"O.O.O.O.O.O.O.O.O.O.O.O.O.O.O.O.O.O.O.O.O.O.O.O.O.O.O.O.O.O.O.O.O.O.O.O.O.O.O.O.O.O.O.O.O.O.O.O.O.O.O.O.O.O.O.O.O.O.O.O.O.O.O.O.",
"o.O.O.O.O.O.O.O.O.O.O.O.O.O.O.O.O.O.O.O.O.O.O.O.O.O.O.O.O.O.O.O.O.O.O.O.O.O.O.O.O.O.O.O.O.O.O.O.O.O.O.O.O.O.O.O.O.O.O.O.O.O.O.O.",
"O.o.O.O.O.O.O.O.O.O.O.O.O.O.O.O.O.O.O.O.O.O.O.O.O.O.O.O.O.O.O.O.O.O.O.O.O.O.O.O.O.O.O.O.O.O.O.O.O.O.O.O.O.O.O.O.O.O.O.O.O.O.O.O.",
"O.O.o.O.O.O.O.O.O.O.O.O.O.O.O.O.O.O.O.O.O.O.O.O.O.O.O.O.O.O.O.O.O.O.O.O.O.O.O.O.O.O.O.O.O.O.O.O.O.O.O.O.O.O.O.O.O.O.O.O.O.O.O.O.",
"O.O.O.o.O.O.O.O.O.O.O.O.O.O.O.O.O.O.O.O.O.O.O.O.O.O.O.O.O.O.O.O.O.O.O.O.O.O.O.O.O.O.O.O.O.O.O.O.O.O.O.O.O.O.O.O.O.O.O.O.O.O.O.O.",
"O.O.O.O.o.O.O.O.O.O.O.O.O.O.O.O.O.O.O.O.O.O.O.O.O.O.O.O.O.O.O.O.O.O.O.O.O.O.O.O.O.O.O.O.O.O.O.O.O.O.O.O.O.O.O.O.O.O.O.O.O.O.O.O.",
"O.O.O.O.O.o.O.O.O.O.O.O.O.O.O.O.O.O.O.O.O.O.O.O.O.O.O.O.O.O.O.O.O.O.O.O.O.O.O.O.O.O.O.O.O.O.O.O.O.O.O.O.O.O.O.O.O.O.O.O.O.O.O.O.",
"O.O.O.O.O.O.o.O.O.O.O.O.O.O.O.O.O.O.O.O.O.O.O.O.O.O.O.O.O.O.O.O.O.O.O.O.O.O.O.O.O.O.O.O.O.O.O.O.O.O.O.O.O.O.O.O.O.O.O.O.O.O.O.O.",
"O.O.O.O.O.O.O.o.O.O.O.O.O.O.O.O.O.O.O.O.O.O.O.O.O.O.O.O.O.O.O.O.O.O.O.O.O.O.O.O.O.O.O.O.O.O.O.O.O.O.O.O.O.O.O.O.O.O.O.O.O.O.O.O.",
"O.O.O.O.O.O.O.O.o.O.O.O.O.O.O.O.O.O.O.O.O.O.O.O.O.O.O.O.O.O.O.O.O.O.O.O.O.O.O.O.O.O.O.O.O.O.O.O.O.O.O.O.O.O.O.O.O.O.O.O.O.O.O.O.",
"O.O.O.O.O.O.O.O.O.o.O.O.O.O.O.O.O.O.O.O.O.O.O.O.O.O.O.O.O.O.O.O.O.O.O.O.O.O.O.O.O.O.O.O.O.O.O.O.O.O.O.O.O.O.O.O.O.O.O.O.O.O.O.O.",
"O.O.O.O.O.O.O.O.O.O.o.O.O.O.O.O.O.O.O.O.O.O.O.O.O.O.O.O.O.O.O.O.O.O.O.O.O.O.O.O.O.O.O.O.O.O.O.O.O.O.O.O.O.O.O.O.O.O.O.O.O.O.O.O.",
"O.O.O.O.O.O.O.O.O.O.O.o.O.O.O.O.O.O.O.O.O.O.O.O.O.O.O.O.O.O.O.O.O.O.O.O.O.O.O.O.O.O.O.O.O.O.O.O.O.O.O.O.O.O.O.O.O.O.O.O.O.O.O.O.",
"O.O.O.O.O.O.O.O.O.O.O.O.o.O.O.O.O.O.O.O.O.O.O.O.O.O.O.O.O.O.O.O.O.O.O.O.O.O.O.O.O.O.O.O.O.O.O.O.O.O.O.O.O.O.O.O.O.O.O.O.O.O.O.O.",
"O.O.O.O.O.O.O.O.O.O.O.O.O.o.O.O.O.O.O.O.O.O.O.O.O.O.O.O.O.O.O.O.O.O.O.O.O.O.O.O.O.O.O.O.O.O.O.O.O.O.O.O.O.O.O.O.O.O.O.O.O.O.O.O.",
"O.O.O.O.O.O.O.O.O.O.O.O.O.O.o.O.O.O.O.O.O.O.O.O.O.O.O.O.O.O.O.O.O.O.O.O.O.O.O.O.O.O.O.O.O.O.O.O.O.O.O.O.O.O.O.O.O.O.O.O.O.O.O.O.",
"O.O.O.O.O.O.O.O.O.O.O.O.O.O.O.o.O.O.O.O.O.O.O.O.O.O.O.O.O.O.O.O.O.O.O.O.O.O.O.O.O.O.O.O.O.O.O.O.O.O.O.O.O.O.O.O.O.O.O.O.O.O.O.O.",
"O.O.O.O.O.O.O.O.O.O.O.O.O.O.O.O.o.O.O.O.O.O.O.O.O.O.O.O.O.O.O.O.O.O.O.O.O.O.O.O.O.O.O.O.O.O.O.O.O.O.O.O.O.O.O.O.O.O.O.O.O.O.O.O.",
"O.O.O.O.O.O.O.O.O.O.O.O.O.O.O.O.O.o.O.O.O.O.O.O.O.O.O.O.O.O.O.O.O.O.O.O.O.O.O.O.O.O.O.O.O.O.O.O.O.O.O.O.O.O.O.O.O.O.O.O.O.O.O.O.",
"O.O.O.O.O.O.O.O.O.O.O.O.O.O.O.O.O.O.o.O.O.O.O.O.O.O.O.O.O.O.O.O.O.O.O.O.O.O.O.O.O.O.O.O.O.O.O.O.O.O.O.O.O.O.O.O.O.O.O.O.O.O.O.O.",
"O.O.O.O.O.O.O.O.O.O.O.O.O.O.O.O.O.O.O.o.O.O.O.O.O.O.O.O.O.O.O.O.O.O.O.O.O.O.O.O.O.O.O.O.O.O.O.O.O.O.O.O.O.O.O.O.O.O.O.O.O.O.O.O.",
"O.O.O.O.O.O.O.O.O.O.O.O.O.O.O.O.O.O.O.O.o.O.O.O.O.O.O.O.O.O.O.O.O.O.O.O.O.O.O.O.O.O.O.O.O.O.O.O.O.O.O.O.O.O.O.O.O.O.O.O.O.O.O.O.",
"O.O.O.O.O.O.O.O.O.O.O.O.O.O.O.O.O.O.O.O.O.o.O.O.O.O.O.O.O.O.O.O.O.O.O.O.O.O.O.O.O.O.O.O.O.O.O.O.O.O.O.O.O.O.O.O.O.O.O.O.O.O.O.O.",
"O.O.O.O.O.O.O.O.O.O.O.O.O.O.O.O.O.O.O.O.O.O.o.O.O.O.O.O.O.O.O.O.O.O.O.O.O.O.O.O.O.O.O.O.O.O.O.O.O.O.O.O.O.O.O.O.O.O.O.O.O.O.O.O.",
"O.O.O.O.O.O.O.O.O.O.O.O.O.O.O.O.O.O.O.O.O.O.O.o.O.O.O.O.O.O.O.O.O.O.O.O.O.O.O.O.O.O.O.O.O.O.O.O.O.O.O.O.O.O.O.O.O.O.O.O.O.O.O.O.",
"O.O.O.O.O.O.O.O.O.O.O.O.O.O.O.O.O.O.O.O.O.O.O.O.o.O.O.O.O.O.O.O.O.O.O.O.O.O.O.O.O.O.O.O.O.O.O.O.O.O.O.O.O.O.O.O.O.O.O.O.O.O.O.O.",
"O.O.O.O.O.O.O.O.O.O.O.O.O.O.O.O.O.O.O.O.O.O.O.O.O.o.O.O.O.O.O.O.O.O.O.O.O.O.O.O.O.O.O.O.O.O.O.O.O.O.O.O.O.O.O.O.O.O.O.O.O.O.O.O.",
"O.O.O.O.O.O.O.O.O.O.O.O.O.O.O.O.O.O.O.O.O.O.O.O.O.O.o.O.O.O.O.O.O.O.O.O.O.O.O.O.O.O.O.O.O.O.O.O.O.O.O.O.O.O.O.O.O.O.O.O.O.O.O.O.",
"O.O.O.O.O.O.O.O.O.O.O.O.O.O.O.O.O.O.O.O.O.O.O.O.O.O.O.o.O.O.O.O.O.O.O.O.O.O.O.O.O.O.O.O.O.O.O.O.O.O.O.O.O.O.O.O.O.O.O.O.O.O.O.O.",
"O.O.O.O.O.O.O.O.O.O.O.O.O.O.O.O.O.O.O.O.O.O.O.O.O.O.O.O.o.O.O.O.O.O.O.O.O.O.O.O.O.O.O.O.O.O.O.O.O.O.O.O.O.O.O.O.O.O.O.O.O.O.O.O.",
"O.O.O.O.O.O.O.O.O.O.O.O.O.O.O.O.O.O.O.O.O.O.O.O.O.O.O.O.O.. . . . . . . . . . . . . . . . . . . . . . . . . . . . . . . . . . . ",
"O.O.O.O.O.O.O.O.O.O.O.O.O.O.O.O.O.O.O.O.O.O.O.O.O.O.O.O.O..                                                                     ",
"O.O.O.O.O.O.O.O.O.O.O.O.O.O.O.O.O.O.O.O.O.O.O.O.O.O.O.O.O..                                                                     ",
"O.O.O.O.O.O.O.O.O.O.O.O.O.O.O.O.O.O.O.O.O.O.O.O.O.O.O.O.O..     > % 9 2 5 ; 1 2 1 @ 7 e 8 1 1 4 e 1 F H x E t u 5 0 6 q > : 4 S ",
"O.O.O.O.O.O.O.O.O.O.O.O.O.O.O.O.O.O.O.O.O.O.O.O.O.O.O.O.O..     O 3 * 3 : < : * * 1 1 8 w : m 4 f 8 x ~ B f 8 _ k 8 e u h V 6 x ",
"O.O.O.O.O.O.O.O.O.O.O.O.O.O.O.O.O.O.O.O.O.O.O.O.O.O.O.O.O..     : ; 2 ; 5 ; > o # 1 = * w 8 4 / x a m H E ~ C C _ e e I > 5 5 > ",
"O.O.O.O.O.O.O.O.O.O.O.O.O.O.O.O.O.O.O.O.O.O.O.O.O.O.O.O.O..     - - q 8 O 8 3 5 4 * = x w 7 u 4 7 w Q / 7 ` R { 8 6 ] 5 6 t 8 & ",
"O.O.O.O.O.O.O.O.O.O.O.O.O.O.O.O.O.O.O.O.O.O.O.O.O.O.O.O.O..     + 2 2 t 2 < * < 1 1 3 = 4 4 _ e ~ # ~ x ` / e 4 e J G x 8 e e G ",
"O.O.O.O.O.O.O.O.O.O.O.O.O.O.O.O.O.O.O.O.O.O.O.O.O.O.O.O.O..     X : > O % > 2 : 1 : : * F 7 w 1 u H q m 4 u f e 1 M e 8 , 4 e 4 ",
"O.O.O.O.O.O.O.O.O.O.O.O.O.O.O.O.O.O.O.O.O.O.O.O.O.O.O.O.O..     - t > ; 2 6 : * = 3 < = = = 3 C : x f f j I 6 E x 3 5 q e C > q ",
"O.O.O.O.O.O.O.O.O.O.O.O.O.O.O.O.O.O.O.O.O.O.O.O.O.O.O.O.O..     0 q e 5 4 $ = * # = * e * t 7 F 8 q Q A 8 0 i e e d c 3 e 6 U v ",
"O.O.O.O.O.O.O.O.O.O.O.O.O.O.O.O.O.O.O.O.O.O.O.O.O.O.O.O.O..     : : ; * 7 w * 2 7 4 = 7 8 1 x x 8 F A e c 5 T 6 8 S 7 e 4 e 0 6 ",
"O.O.O.O.O.O.O.O.O.O.O.O.O.O.O.O.O.O.O.O.O.O.O.O.O.O.O.O.O..     * p ; ; = 1 2 2 < 1 4 = # 2 f F 5 ] S h 8 J q t _ f e S 5 F 4 4 ",
"O.O.O.O.O.O.O.O.O.O.O.O.O.O.O.O.O.O.O.O.O.O.O.O.O.O.O.O.O..     - 0 O - ; 2 4 = 4 : 2 2 4 < 8 4 1 / 4 o.~ v h ' 0 q r 6 6 8 6 1 ",
"O.O.O.O.O.O.O.O.O.O.O.O.O.O.O.O.O.O.O.O.O.O.O.O.O.O.O.O.O..     3 < 2 2 : % 1 % 1 4 = 1 4 < = 3 w e w 8 9 v K Y 5 5 3 > > l 3 , ",
"O.O.O.O.O.O.O.O.O.O.O.O.O.O.O.O.O.O.O.O.O.O.O.O.O.O.O.O.O..     ; s ; 0 0 < 1 1 : * 1 4 4 C w * 8 e x C 0 t e j > t - 3 0 5 : q ",
"O.O.O.O.O.O.O.O.O.O.O.O.O.O.O.O.O.O.O.O.O.O.O.O.O.O.O.O.O..     : 2 9 2 9 ; ; 2 : = w 4 3 4 4 f 4 e 8 | [ I e 0 2 > > r 2 q 0 > ",
"O.O.O.O.O.O.O.O.O.O.O.O.O.O.O.O.O.O.O.O.O.O.O.O.O.O.O.O.O..     0 5 : e 3 3 = < % t * 5 = 8 e t x k k F A Q 7 } 6 8 5 > d 9 K q ",
"O.O.O.O.O.O.O.O.O.O.O.O.O.O.O.O.O.O.O.O.O.O.O.O.O.O.O.O.O..     q 9 ; 2 X 6 : 4 * 1 5 3 w 7 J t C J E ~ _ Q e 4 5 6 U q e t e 9 ",
"O.O.O.O.O.O.O.O.O.O.O.O.O.O.O.O.O.O.O.O.O.O.O.O.O.O.O.O.O..     0 7 2 : 8 : ; 0 C < 1 8 6 e 6 4 w K [ 7 t T Q e w t 0 > > t 9 t ",
"O.O.O.O.O.O.O.O.O.O.O.O.O.O.O.O.O.O.O.O.O.O.O.O.O.O.O.O.O..     + > 2 : - ; e ; 3 7 4 4 p } e } * ~ i Q B A _ p 4 e t 7 t 7 n t ",
"O.O.O.O.O.O.O.O.O.O.O.O.O.O.O.O.O.O.O.O.O.O.O.O.O.O.O.O.O..     : , 6 7 2 % ; > w = q 7 = C 7 C Q 8 N e 7 q 8 A t > t s q 9 t 0 ",
"O.O.O.O.O.O.O.O.O.O.O.O.O.O.O.O.O.O.O.O.O.O.O.O.O.O.O.O.O..     - : % j ; ' 9 2 5 w = 7 & 4 e 4 C A l Q S e e p q 3 7 s q j 0 q ",
"O.O.O.O.O.O.O.O.O.O.O.O.O.O.O.O.O.O.O.O.O.O.O.O.O.O.O.O.O..     ; 8 : > - > 6 e d 1 % * C 1 C 5 I _ c q C A M 8 5 3 2 > 5 t 9 > ",
"O.O.O.O.O.O.O.O.O.O.O.O.O.O.O.O.O.O.O.O.O.O.O.O.O.O.O.O.O..     q 9 2 0 : : 0 : 1 5 6 8 1 M C 8 J Q E u 5 e e 4 2 8 > > q 0 ; 2 ",
"O.O.O.O.O.O.O.O.O.O.O.O.O.O.O.O.O.O.O.O.O.O.O.O.O.O.O.O.O..     t 5 q & ; 2 ; 2 ; q 3 > M 0 8 7 M n 5 : J 4 7 e I e < K 5 t > 6 ",
"O.O.O.O.O.O.O.O.O.O.O.O.O.O.O.O.O.O.O.O.O.O.O.O.O.O.O.O.O..     e q ; ; 2 > % 2 2 5 > 0 6 2 5 0 w 1 E 8 n ! ; C j e 6 5 0 ; ; 5 ",
"O.O.O.O.O.O.O.O.O.O.O.O.O.O.O.O.O.O.O.O.O.O.O.O.O.O.O.O.O..     q : 7 % - w - % > 0 6 & 4 * > 4 1 v 6 4 e J e 1 I : 0 5 1 % : : ",
"O.O.O.O.O.O.O.O.O.O.O.O.O.O.O.O.O.O.O.O.O.O.O.O.O.O.O.O.O..     U 5 5 % o : - % * 2 5 7 4 : 7 5 h J q o.A 7 J u 2 5 2 5 > 0 0 5 ",
"O.O.O.O.O.O.O.O.O.O.O.O.O.O.O.O.O.O.O.O.O.O.O.O.O.O.O.O.O..     0 j 5 7 0 q ; 3 1 < 5 0 > 1 8 5 M e | ..q : t c e : q : - h t 2 ",
"O.O.O.O.O.O.O.O.O.O.O.O.O.O.O.O.O.O.O.O.O.O.O.O.O.O.O.O.O..     n U 2 : 5 - 0 ; 3 6 5 e 7 0 q I 7 S { C U q q n 5 s 9 A 2 e 0 0 ",
"O.O.O.O.O.O.O.O.O.O.O.O.O.O.O.O.O.O.O.O.O.O.O.O.O.O.O.O.O..     5 0 : > 2 o > ; q 5 7 6 ~ 8 7 6 X.[ c p ] E : I 3 > e 6 2 6 7 5 ",
"O.O.O.O.O.O.O.O.O.O.O.O.O.O.O.O.O.O.O.O.O.O.O.O.O.O.O.O.O..     5 0 9 : 5 ; : t 5 5 ; ~ q w C t 0 :  .B A T A e : : 1 0 8 9 0 6 "
};
