/* XPM */
static char *_1ff30f51cd64d51c5b329024209c1e8iKH1vh5w56vrYn3g[] = {
/* columns rows colors chars-per-pixel */
"64 64 105 2 ",
"   c #4B4545",
".  c #8F8484",
"X  c #948F8C",
"o  c #9C918D",
"O  c #9E9692",
"+  c #9F9A97",
"@  c #9F9A98",
"#  c #A1948B",
"$  c #A09693",
"%  c #A89791",
"&  c #A49B94",
"*  c #AA9D96",
"=  c #A59D9A",
"-  c #AA9E9A",
";  c #ACA096",
":  c #A5A09D",
">  c #ACA29D",
",  c #B1A59D",
"<  c #B8A89F",
"1  c #A7A3A1",
"2  c #ACA5A2",
"3  c #AEA9A5",
"4  c #ADABA9",
"5  c #B2A6A2",
"6  c #B3AAA4",
"7  c #BAABA4",
"8  c #B3ADAA",
"9  c #BAAEAA",
"0  c #BEB0A7",
"q  c #B6B1AD",
"w  c #BCB2AD",
"e  c #B5B3B2",
"r  c #BCB5B2",
"t  c #BCB8B5",
"y  c #BFB8B4",
"u  c #BEB9B5",
"i  c #BCB8B6",
"p  c #BCB9B7",
"a  c #BBBABA",
"s  c #BDBBB9",
"d  c #BFBAB8",
"f  c #BDBBBA",
"g  c #BFBDBD",
"h  c #BFBFBE",
"j  c #C0B1A7",
"k  c #C1B0AB",
"l  c #C1B0AD",
"z  c #C1B2AC",
"x  c #C1B2AE",
"c  c #C3B3AE",
"v  c #C3B7AD",
"b  c #C0B5AF",
"n  c #C4B8AF",
"m  c #C0B5B1",
"M  c #C4B6B2",
"N  c #C0B6B5",
"B  c #C3B9B1",
"V  c #C2B9B2",
"C  c #C5BAB3",
"Z  c #C3B9B5",
"A  c #C1BAB7",
"S  c #C5BBB7",
"D  c #C2BCB6",
"F  c #C9BBB5",
"G  c #C2BBB9",
"H  c #C1BDBB",
"J  c #C3BDBB",
"K  c #C4BDB9",
"L  c #C6BDB8",
"P  c #C6BDB9",
"I  c #C4BDBB",
"U  c #C2BEBC",
"Y  c #C2BFBF",
"T  c #C5BEBD",
"R  c #C6BEBC",
"E  c #C6BFBD",
"W  c #C8BBB9",
"Q  c #CABEBA",
"!  c #C3C0BF",
"~  c #C7C0BC",
"^  c #C5C1BE",
"/  c #C9C0BB",
"(  c #CBC2BE",
")  c #CBC2BF",
"_  c #CDC2BE",
"`  c #CEC2BF",
"'  c #D7C4BF",
"]  c #C7C1C0",
"[  c #C5C4C3",
"{  c #C6C6C6",
"}  c #CAC4C2",
"|  c #CDC5C0",
" . c #CDC5C4",
".. c #CEC7C4",
"X. c #CCC8C6",
"o. c #CAC9C8",
"O. c #CECCCB",
"+. c #D6C5C1",
"@. c #D0C8C5",
"#. c #D0C9C7",
"$. c #D2CDCB",
"%. c #D6D0CE",
"&. c #DDD3CF",
"*. c #D6D6D6",
"=. c white",
/* pixels */
"=.=.=.=.=.=.=.=.=.=.=.=.=.=.=.=.=.=.=.=.=.=.=.=.=.=.=.=.=.=.=..     L r , ; R 5 w V 7 5 2 , w , r w p p q w , , 7 3 > q 3 q 6 6 ",
"=.=.=.=.=.=.=.=.=.=.=.=.=.=.=.=.=.=.=.=.=.=.=.=.=.=.=.=.=.=.=..     6 7 6 7 r r , L 9 5 9 3 , 9 R w 7 L p q w : ; : > q V q 8 w ",
"=.=.=.=.=.=.=.=.=.=.=.=.=.=.=.=.=.=.=.=.=.=.=.=.=.=.=.=.=.=.=..     2 L 7 a V 5 J 9 r L 9 n 7 q 7 C p 4 0 n u q D ; * q w w , w ",
"=.=.=.=.=.=.=.=.=.=.=.=.=.=.=.=.=.=.=.=.=.=.=.=.=.=.=.=.=.=.=..     , z , 7 9 , r w 5 8 7 , q 2 7 p , p v q 6 q 6 q 2 > ; 3 8 9 ",
"=.=.=.=.=.=.=.=.=.=.=.=.=.=.=.=.=.=.=.=.=.=.=.=.=.=.=.=.=.=.=..     r a Y 8 r w q 8 r Y < 6 3 J 6 w , q h / 2 3 a 9 6 5 > ~ 8 q ",
"=.=.=.=.=.=.=.=.=.=.=.=.=.=.=.=.=.=.=.=.=.=.=.=.=.=.=.=.=.=.=..     5 r r ..L r 7 C 8 r r 8 > , 6 / q u n 4 6 > 1 9 q 3 w j w , ",
"=.=.=.=.=.=.=.=.=.=.=.=.=.=.=.=.=.=.=.=.=.=.=.=.=.=.=.=.=.=.=..     w 9 r 7 Q S 8 9 H w w 3 r , 6 7 s e ; 4 4 7 p w > 4 , s , 2 ",
"=.=.=.=.=.=.=.=.=.=.=.=.=.=.=.=.=.=.=.=.=.=.=.=.=.=.=.=.=.=.=..     6 m ..9 q 2 m r 9 | 9 6 2 5 6 6 p , p w 6 q / V [ 6 w 8 3 > ",
"=.=.=.=.=.=.=.=.=.=.=.=.=.=.=.=.=.=.=.=.=.=.=.=.=.=.=.=.=.=.=..     r +.S +.5 r } r 7 a o.) M w @.7 r a R a r 5 r C 3 i V V R i ",
"=.=.=.=.=.=.=.=.=.=.=.=.=.=.=.=.=.=.=.=.=.=.=.=.=.=.=.=.=.=.=..     p 9 R +.r 9 7 i | 9 M J r r 8 r o.Q 9 r M e 8 = r / a 9 > Y ",
"=.=.=.=.=.=.=.=.=.=.=.=.=.=.=.=.=.=.=.=.=.=.=.=.=.=.=.=.=.=.=..     / m ) ..| r S w 9 F M J J J Y [ ..S m r W w 3 } H 8 ; z R / ",
"=.=.=.=.=.=.=.=.=.=.=.=.=.=.=.=.=.=.=.=.=.=.=.=.=.=.=.=.=.=.=..     m F [ 8 @.5 M 9 S 9 } 9 9 O.R } f W 8 L N 8 Q S b L w R O.L ",
"=.=.=.=.=.=.=.=.=.=.=.=.=.=.=.=.=.=.=.=.=.=.=.=.=.=.=.=.=.=.=..     W } W | m F m S a r %.9 W $.R  .8 { r } z N - 8 7 *.&.L a S ",
"=.=.=.=.=.=.=.=.=.=.=.=.=.=.=.=.=.=.=.=.=.=.=.=.=.=.=.=.=.=.=..     } N V { ] N k [ J R 5 w N 9 m [ o.a M M M Y 7 R 7 8 $...M %.",
"=.=.=.=.=.=.=.=.=.=.=.=.=.=.=.=.=.=.=.=.=.=.=.=.=.=.=.=.=.=.=..     2 8 f r O S N j R o.] N r w r Q R | i M } { S 2 M } r J $.3 ",
"=.=.=.=.=.=.=.=.=.=.=.=.=.=.=.=.=.=.=.=.=.=.=.=.=.=.=.=.=.=.=..     r z N 6 | i , 8 9 5 2 e 9 5 m S e = { V R W J e , m V 8 *.8 ",
"=.=.=.=.=.=.=.=.=.=.=.=.=.=.=.=.=.=.=.=.=.=.=.=.=.=.=.=.=.=.=..     5 5 | 5 e 5 N W k Y 5 4 1 z J r 6 $.M 6 8 7 8 r > 6 6 R 5 M ",
"=.=.=.=.=.=.=.=.=.=.=.=.=.=.=.=.=.=.=.=.=.=.=.=.=.=.=.=.=.=.=..     5 N 5 a  .e 4 8 r k z % 8 5 r R 5 r 8 r M J 9 8 5 w w m 8 J ",
"=.=.=.=.=.=.=.=.=.=.=.=.=.=.=.=.=.=.=.=.=.=.=.=.=.=.=.=.=.=.=..     5 5 9 8 8 5 - N 4 4 1 1 J > 8 5 m @.N 6 3 S 8 3 = - 1 9 9 i ",
"=.=.=.=.=.=.=.=.=.=.=.=.=.=.=.=.=.=.=.=.=.=.=.=.=.=.=.=.=.=.=..     8 e 8 e 5 H 2 = e O 5 5 9 2 - e 7 f - * r > M 7 5 3 , 8 ] r ",
"=.=.=.=.=.=.=.=.=.=.=.=.=.=.=.=.=.=.=.=.=.=.=.=.=.=.=.=.=.=.=..     9 9 - r % - - r 5 2 3 3 5 5 3 3 9 6 8 8 = 9 , q & q 8 N 6 ) ",
"=.=.=.=.=.=.=.=.=.=.=.=.=.=.=.=.=.=.=.=.=.=.=.=.=.=.=.=.=.=.=..     8 2 1 - 8 2 1 = - 5 5 1 1 e = 8 2 2 w - & 7 3 , 9 7 5 8 8 * ",
"=.=.=.=.=.=.=.=.=.=.=.=.=.=.=.=.=.=.=.=.=.=.=.=.=.=.=.=.=.=.=..     @ 4 2 - 2 - 3 - 5 2 - 5 = 2 r 1 2 8 > 8 2 9 p 6 7 3 1 7 6 6 ",
"=.=.=.=.=.=.=.=.=.=.=.=.=.=.=.=.=.=.=.=.=.=.=.=.=.=.=.=.=.=.=..     - = $ 5 2 4 - $ 8 1 , 2 > > = = S 3 r 8 z 2 = 2 6 = 2 4 r 5 ",
"=.=.=.=.=.=.=.=.=.=.=.=.=.=.=.=.=.=.=.=.=.=.=.=.=.=.=.=.=.=.=..     4 $ o 5 1 2 @ @ 3 3 - & 2 2 : 3 4 : , 6 t > 3 3 # ; 4 : : r ",
"=.=.=.=.=.=.=.=.=.=.=.=.=.=.=.=.=.=.=.=.=.=.=.=.=.=.=.=.=.=.=..     1 5 5 4 = 5 , > : 3 3 2 2 : > > , r ; q , q : & > ; : q , > ",
"=.=.=.=.=.=.=.=.=.=.=.=.=.=.=.=.=.=.=.=.=.=.=.=.=.=.=.=.=.=.=..     1 1 1 7 1 5 < ; r 2 5 & 2 > 4 7 ; : & o., > : , q , q > O : ",
"=.=.=.=.=.=.=.=.=.=.=.=.=.=.=.=.=.=.=.=.=.=.=.=.=.=.=.=.=.=.=..     5 2 5 O 8 % 2 , q ; = 2 8 9 4 X 8 ; 3 : ; , : 8 : # q , 3 6 ",
"=.=.=.=.=.=.=.=.=.=.=.=.=.=.=.=.=.=.=.=.=.=.=.=.=.=.=.=.=.=.=..     8 8 - 8 i $ : 6 : : : 2 t > t 2 , > 4 / ; q ; : + & 4 > , : ",
"=.=.=.=.=.=.=.=.=.=.=.=.=.=.=.=.=.=.=.=.=.=.=.=.=.=.=.=.=.=.=..     w & 3 r 2 5 > e : + O 6 : 0 , : 3 3 6 ; ; 4 w ; 4 6 < 6 , w ",
"=.=.=.=.=.=.=.=.=.=.=.=.=.=.=.=.=.=.=.=.=.=.=.=.=.=.=.=.=.=.=..     & 4 > & 3 - t w > h w > h 4 , 8 q , 6 > 7 7 4 V > w p / q q ",
"=.=.=.=.=.=.=.=.=.=.=.=.=.=.=.=.=.=.=.=.=.=.=.=.=.=.=.=.=.=.=..     > O > & = o ; e > + ; 4 : > w w q + ; ; ; w ~ e w C 7 / 4 6 ",
"=.=.=.=.=.=.=.=.=.=.=.=.=.=.=.=.=.=.=.=.=.=.=.=.=.=.=.=.=.=.=..                                                                 ",
"=.=.=.=.=.=.=.=.=.=.=.=.=.=.=.=.=.=.=.=.=.=.=.=.=.=.=.=.=.=.=..                                                                 ",
"=.=.=.=.=.=.=.=.=.=.=.=.=.=.=.=.=.=.=.=.=.=.=.=.=.=.=.=.=.=.=.. . . . . . . . . . . . . . . . . . . . . . . . . . . . . . . . . ",
"=.=.=.=.=.=.=.=.=.=.=.=.=.=.=.=.=.=.=.=.=.=.=.=.=.=.=.=.=.=.*.=.=.=.=.=.=.=.=.=.=.=.=.=.=.=.=.=.=.=.=.=.=.=.=.=.=.=.=.=.=.=.=.=.",
"=.=.=.=.=.=.=.=.=.=.=.=.=.=.=.=.=.=.=.=.=.=.=.=.=.=.=.=.=.*.=.=.=.=.=.=.=.=.=.=.=.=.=.=.=.=.=.=.=.=.=.=.=.=.=.=.=.=.=.=.=.=.=.=.",
"=.=.=.=.=.=.=.=.=.=.=.=.=.=.=.=.=.=.=.=.=.=.=.=.=.=.=.=.*.=.=.=.=.=.=.=.=.=.=.=.=.=.=.=.=.=.=.=.=.=.=.=.=.=.=.=.=.=.=.=.=.=.=.=.",
"=.=.=.=.=.=.=.=.=.=.=.=.=.=.=.=.=.=.=.=.=.=.=.=.=.=.=.*.=.=.=.=.=.=.=.=.=.=.=.=.=.=.=.=.=.=.=.=.=.=.=.=.=.=.=.=.=.=.=.=.=.=.=.=.",
"=.=.=.=.=.=.=.=.=.=.=.=.=.=.=.=.=.=.=.=.=.=.=.=.=.=.*.=.=.=.=.=.=.=.=.=.=.=.=.=.=.=.=.=.=.=.=.=.=.=.=.=.=.=.=.=.=.=.=.=.=.=.=.=.",
"=.=.=.=.=.=.=.=.=.=.=.=.=.=.=.=.=.=.=.=.=.=.=.=.=.*.=.=.=.=.=.=.=.=.=.=.=.=.=.=.=.=.=.=.=.=.=.=.=.=.=.=.=.=.=.=.=.=.=.=.=.=.=.=.",
"=.=.=.=.=.=.=.=.=.=.=.=.=.=.=.=.=.=.=.=.=.=.=.=.*.=.=.=.=.=.=.=.=.=.=.=.=.=.=.=.=.=.=.=.=.=.=.=.=.=.=.=.=.=.=.=.=.=.=.=.=.=.=.=.",
"=.=.=.=.=.=.=.=.=.=.=.=.=.=.=.=.=.=.=.=.=.=.=.*.=.=.=.=.=.=.=.=.=.=.=.=.=.=.=.=.=.=.=.=.=.=.=.=.=.=.=.=.=.=.=.=.=.=.=.=.=.=.=.=.",
"=.=.=.=.=.=.=.=.=.=.=.=.=.=.=.=.=.=.=.=.=.=.*.=.=.=.=.=.=.=.=.=.=.=.=.=.=.=.=.=.=.=.=.=.=.=.=.=.=.=.=.=.=.=.=.=.=.=.=.=.=.=.=.=.",
"=.=.=.=.=.=.=.=.=.=.=.=.=.=.=.=.=.=.=.=.=.*.=.=.=.=.=.=.=.=.=.=.=.=.=.=.=.=.=.=.=.=.=.=.=.=.=.=.=.=.=.=.=.=.=.=.=.=.=.=.=.=.=.=.",
"=.=.=.=.=.=.=.=.=.=.=.=.=.=.=.=.=.=.=.=.*.=.=.=.=.=.=.=.=.=.=.=.=.=.=.=.=.=.=.=.=.=.=.=.=.=.=.=.=.=.=.=.=.=.=.=.=.=.=.=.=.=.=.=.",
"=.=.=.=.=.=.=.=.=.=.=.=.=.=.=.=.=.=.=.*.=.=.=.=.=.=.=.=.=.=.=.=.=.=.=.=.=.=.=.=.=.=.=.=.=.=.=.=.=.=.=.=.=.=.=.=.=.=.=.=.=.=.=.=.",
"=.=.=.=.=.=.=.=.=.=.=.=.=.=.=.=.=.=.*.=.=.=.=.=.=.=.=.=.=.=.=.=.=.=.=.=.=.=.=.=.=.=.=.=.=.=.=.=.=.=.=.=.=.=.=.=.=.=.=.=.=.=.=.=.",
"=.=.=.=.=.=.=.=.=.=.=.=.=.=.=.=.=.*.=.=.=.=.=.=.=.=.=.=.=.=.=.=.=.=.=.=.=.=.=.=.=.=.=.=.=.=.=.=.=.=.=.=.=.=.=.=.=.=.=.=.=.=.=.=.",
"=.=.=.=.=.=.=.=.=.=.=.=.=.=.=.=.*.=.=.=.=.=.=.=.=.=.=.=.=.=.=.=.=.=.=.=.=.=.=.=.=.=.=.=.=.=.=.=.=.=.=.=.=.=.=.=.=.=.=.=.=.=.=.=.",
"=.=.=.=.=.=.=.=.=.=.=.=.=.=.=.*.=.=.=.=.=.=.=.=.=.=.=.=.=.=.=.=.=.=.=.=.=.=.=.=.=.=.=.=.=.=.=.=.=.=.=.=.=.=.=.=.=.=.=.=.=.=.=.=.",
"=.=.=.=.=.=.=.=.=.=.=.=.=.=.*.=.=.=.=.=.=.=.=.=.=.=.=.=.=.=.=.=.=.=.=.=.=.=.=.=.=.=.=.=.=.=.=.=.=.=.=.=.=.=.=.=.=.=.=.=.=.=.=.=.",
"=.=.=.=.=.=.=.=.=.=.=.=.=.*.=.=.=.=.=.=.=.=.=.=.=.=.=.=.=.=.=.=.=.=.=.=.=.=.=.=.=.=.=.=.=.=.=.=.=.=.=.=.=.=.=.=.=.=.=.=.=.=.=.=.",
"=.=.=.=.=.=.=.=.=.=.=.=.*.=.=.=.=.=.=.=.=.=.=.=.=.=.=.=.=.=.=.=.=.=.=.=.=.=.=.=.=.=.=.=.=.=.=.=.=.=.=.=.=.=.=.=.=.=.=.=.=.=.=.=.",
"=.=.=.=.=.=.=.=.=.=.=.*.=.=.=.=.=.=.=.=.=.=.=.=.=.=.=.=.=.=.=.=.=.=.=.=.=.=.=.=.=.=.=.=.=.=.=.=.=.=.=.=.=.=.=.=.=.=.=.=.=.=.=.=.",
"=.=.=.=.=.=.=.=.=.=.*.=.=.=.=.=.=.=.=.=.=.=.=.=.=.=.=.=.=.=.=.=.=.=.=.=.=.=.=.=.=.=.=.=.=.=.=.=.=.=.=.=.=.=.=.=.=.=.=.=.=.=.=.=.",
"=.=.=.=.=.=.=.=.=.*.=.=.=.=.=.=.=.=.=.=.=.=.=.=.=.=.=.=.=.=.=.=.=.=.=.=.=.=.=.=.=.=.=.=.=.=.=.=.=.=.=.=.=.=.=.=.=.=.=.=.=.=.=.=.",
"=.=.=.=.=.=.=.=.*.=.=.=.=.=.=.=.=.=.=.=.=.=.=.=.=.=.=.=.=.=.=.=.=.=.=.=.=.=.=.=.=.=.=.=.=.=.=.=.=.=.=.=.=.=.=.=.=.=.=.=.=.=.=.=.",
"=.=.=.=.=.=.=.*.=.=.=.=.=.=.=.=.=.=.=.=.=.=.=.=.=.=.=.=.=.=.=.=.=.=.=.=.=.=.=.=.=.=.=.=.=.=.=.=.=.=.=.=.=.=.=.=.=.=.=.=.=.=.=.=.",
"=.=.=.=.=.=.*.=.=.=.=.=.=.=.=.=.=.=.=.=.=.=.=.=.=.=.=.=.=.=.=.=.=.=.=.=.=.=.=.=.=.=.=.=.=.=.=.=.=.=.=.=.=.=.=.=.=.=.=.=.=.=.=.=.",
"=.=.=.=.=.*.=.=.=.=.=.=.=.=.=.=.=.=.=.=.=.=.=.=.=.=.=.=.=.=.=.=.=.=.=.=.=.=.=.=.=.=.=.=.=.=.=.=.=.=.=.=.=.=.=.=.=.=.=.=.=.=.=.=.",
"=.=.=.=.*.=.=.=.=.=.=.=.=.=.=.=.=.=.=.=.=.=.=.=.=.=.=.=.=.=.=.=.=.=.=.=.=.=.=.=.=.=.=.=.=.=.=.=.=.=.=.=.=.=.=.=.=.=.=.=.=.=.=.=.",
"=.=.=.*.=.=.=.=.=.=.=.=.=.=.=.=.=.=.=.=.=.=.=.=.=.=.=.=.=.=.=.=.=.=.=.=.=.=.=.=.=.=.=.=.=.=.=.=.=.=.=.=.=.=.=.=.=.=.=.=.=.=.=.=.",
"=.=.*.=.=.=.=.=.=.=.=.=.=.=.=.=.=.=.=.=.=.=.=.=.=.=.=.=.=.=.=.=.=.=.=.=.=.=.=.=.=.=.=.=.=.=.=.=.=.=.=.=.=.=.=.=.=.=.=.=.=.=.=.=."
};
