/* XPM */
static char *a8be9bed44f7474282dc18113f784d89VbCSsyRZsAdfXcyp[] = {
/* columns rows colors chars-per-pixel */
"64 64 105 2 ",
"   c #4B4545",
".  c #8F8484",
"X  c #948F8C",
"o  c #9C918D",
"O  c #9E9692",
"+  c #9F9A97",
"@  c #9F9A98",
"#  c #A1948B",
"$  c #A09693",
"%  c #A89791",
"&  c #A49B94",
"*  c #AA9D96",
"=  c #A59D9A",
"-  c #AA9E9A",
";  c #ACA096",
":  c #A5A09D",
">  c #ACA29D",
",  c #B1A59D",
"<  c #B8A89F",
"1  c #A7A3A1",
"2  c #ACA5A2",
"3  c #AEA9A5",
"4  c #ADABA9",
"5  c #B2A6A2",
"6  c #B3AAA4",
"7  c #BAABA4",
"8  c #B3ADAA",
"9  c #BAAEAA",
"0  c #BEB0A7",
"q  c #B6B1AD",
"w  c #BCB2AD",
"e  c #B5B3B2",
"r  c #BBB3B1",
"t  c #BAB3B2",
"y  c #BAB4B0",
"u  c #BBB4B1",
"i  c #B8B5B3",
"p  c #B9B5B3",
"a  c #BBB4B2",
"s  c #BDB5B1",
"d  c #BEB7B2",
"f  c #BDB7B4",
"g  c #BDB6B5",
"h  c #BEB9B5",
"j  c #BEB9B6",
"k  c #BBBABA",
"l  c #BEBBBB",
"z  c #BFBDBC",
"x  c #C0B1A7",
"c  c #C1B3AD",
"v  c #C0B6AD",
"b  c #C2B6AE",
"n  c #C1B6B2",
"m  c #C2B6B2",
"M  c #C6BBB0",
"N  c #C6B8B2",
"B  c #C1B9B4",
"V  c #C3BAB5",
"C  c #C0B9B7",
"Z  c #C5B9B4",
"A  c #C6B9B6",
"S  c #C6BBB6",
"D  c #C9BBB5",
"F  c #C0B9B8",
"G  c #C1B9B9",
"H  c #C1BDB9",
"J  c #C3BDB9",
"K  c #C1BCBB",
"L  c #C3BCBA",
"P  c #C2BEBB",
"I  c #C4BDB9",
"U  c #C7BEB9",
"Y  c #C3BEBC",
"T  c #C1BFBE",
"R  c #C6BFBD",
"E  c #CBBBB8",
"W  c #C9BDBA",
"Q  c #CEBFBA",
"!  c #C3C0BF",
"~  c #C5C0BC",
"^  c #C7C0BC",
"/  c #C5C1BE",
"(  c #C6C1BF",
")  c #CAC1BE",
"_  c #CBC2BE",
"`  c #D7C4BF",
"'  c #C1C1C1",
"]  c #C5C4C3",
"[  c #CBC4C2",
"{  c #CEC4C0",
"}  c #CAC6C4",
"|  c #C8C7C6",
" . c #CCC8C6",
".. c #CDCBCA",
"X. c gray81",
"o. c #D6C5C1",
"O. c #D0C8C5",
"+. c #D0C9C7",
"@. c #D1CBCA",
"#. c #D5CCC8",
"$. c #D1CFCE",
"%. c #D6D0CE",
"&. c #DDD3CF",
"*. c #D6D5D5",
"=. c white",
/* pixels */
"6 w w 9 q , 5 - t K Q R E $., 8 L L t w { - 3 2 t 2 : 6 : 0 q 6     . =.=.=.=.=.=.=.=.=.=.=.=.=.=.=.=.=.=.=.=.=.=.=.=.=.=.=.=.=.",
"6 8 , 8 8 u , 3 ~ 2 ~ @.k N $.%.6 8 9 { 6 8 6 i : , # 3 , , q 4     . =.=.=.=.=.=.=.=.=.=.=.=.=.=.=.=.=.=.=.=.=.=.=.=.=.=.=.=.=.",
"8 q f 3 ~ 0 K 6 I 8 c ~ I _ z 8 R x s 8 s 6 7 e : q > 6 , 3 ~ K     . =.=.=.=.=.=.=.=.=.=.=.=.=.=.=.=.=.=.=.=.=.=.=.=.=.=.=.=.=.",
"6 h b * > w , u V h > 9 &.#.s K 8 9 1 , 8 5 > > 3 1 w 8 7 , w 9     . =.=.=.=.=.=.=.=.=.=.=.=.=.=.=.=.=.=.=.=.=.=.=.=.=.=.=.=.=.",
"8 q q > 6 6 8 5 s W 8 R *.s W b 6 8 > 5 q 6 8 & & ; , O ; , q ~     . =.=.=.=.=.=.=.=.=.=.=.=.=.=.=.=.=.=.=.=.=.=.=.=.=.=.=.=.=.",
"> > % 2 6 q 1 ! 2 t W w 6 7 N 5 > 5 = 6 * 6 9 6 $ > q ; @ 4 , w     . =.=.=.=.=.=.=.=.=.=.=.=.=.=.=.=.=.=.=.=.=.=.=.=.=.=.=.=.=.",
"6 : > 8 6 6 w B I = } V 8 ~ 2 q w 8 2 7 8 6 8 1 2 & , 4 : : w u     . =.=.=.=.=.=.=.=.=.=.=.=.=.=.=.=.=.=.=.=.=.=.=.=.=.=.=.=.=.",
"6 , B 6 ! 1 h ) f 8 5 Q > 8 G G 8 9 8 W , 2 s - 6 : 2 : ; w 9 h     . =.=.=.=.=.=.=.=.=.=.=.=.=.=.=.=.=.=.=.=.=.=.=.=.=.=.=.=.=.",
"6 - w q 5 2 8 8 5 e r 8 G T } W 7 L G 5 7 7 8 2 > q > 2 q 6 7 w     . =.=.=.=.=.=.=.=.=.=.=.=.=.=.=.=.=.=.=.=.=.=.=.=.=.=.=.=.=.",
"> w s 8 2 6 3 5 9 I V I c m } W 6 V 5 m = & > 9 w 6 , > ; , q *     . =.=.=.=.=.=.=.=.=.=.=.=.=.=.=.=.=.=.=.=.=.=.=.=.=.=.=.=.=.",
"q q B q W 8 8 w k f s ! [ m W B 5 t 6 * q * e 8 4 q  .> M & > *     . =.=.=.=.=.=.=.=.=.=.=.=.=.=.=.=.=.=.=.=.=.=.=.=.=.=.=.=.=.",
"q m x B K s > s ~ 9 w 8 f V 9 ] V 8 G - 4 w > t , ; % 2 q 6 6 *     . =.=.=.=.=.=.=.=.=.=.=.=.=.=.=.=.=.=.=.=.=.=.=.=.=.=.=.=.=.",
"u ~ 8 h 8 t e 6 K R G W ] G ( * @.u O.h 6 2 8 4 : f > ; > 6 , &     . =.=.=.=.=.=.=.=.=.=.=.=.=.=.=.=.=.=.=.=.=.=.=.=.=.=.=.=.=.",
"u q f , 7 q k s r } { k 8 ..K i 6 6 u 8 w 2 2 K 8 : ; 8 2 3 q q     . =.=.=.=.=.=.=.=.=.=.=.=.=.=.=.=.=.=.=.=.=.=.=.=.=.=.=.=.=.",
"0 w h h w D 7 6 6 m ] } [ ] W T u _ 5 t 3 6 1 : 6 > 8 X 2 1 x w     . =.=.=.=.=.=.=.=.=.=.=.=.=.=.=.=.=.=.=.=.=.=.=.=.=.=.=.=.=.",
"w ~ 0 7 6 6 8 6 O.8 T W ( c p m K u 8 - 3 = s & > : 4 3 h ; 6 q     . =.=.=.=.=.=.=.=.=.=.=.=.=.=.=.=.=.=.=.=.=.=.=.=.=.=.=.=.=.",
", 8 u > ~ , 6 3 9 f K X.X.7 t 5 c 5 > 4 5 t - - 2 1 = 9 2 w 8 :     . =.=.=.=.=.=.=.=.=.=.=.=.=.=.=.=.=.=.=.=.=.=.=.=.=.=.=.=.=.",
"w 3 6 q 3 ; w 2 G f h 9 R G 9 8 1 9 G 8 5 1 - > 2 5 2 8 w = k :     . =.=.=.=.=.=.=.=.=.=.=.=.=.=.=.=.=.=.=.=.=.=.=.=.=.=.=.=.=.",
", 4 M , 6 4 6 6 o.G f w 8 t s f 8 % 1 5 5 1 5 1 & 2 & 5 2 8 1 4     . =.=.=.=.=.=.=.=.=.=.=.=.=.=.=.=.=.=.=.=.=.=.=.=.=.=.=.=.=.",
"> 0 0 6 < f 0 q } c Z o.%.5 { 2 5 w 1 5 4 5 > 5 * 2 5 1 = O w -     . =.=.=.=.=.=.=.=.=.=.=.=.=.=.=.=.=.=.=.=.=.=.=.=.=.=.=.=.=.",
"2 2 ~ 6 K f w _ k 9 Q 7 m G ..5 G c 4 $ - > 2 2 2 6 1 - 1 = z @     . =.=.=.=.=.=.=.=.=.=.=.=.=.=.=.=.=.=.=.=.=.=.=.=.=.=.=.=.=.",
"7 w y 6 i q ~ q 7 { 8 V f R R 9 m m 4 9 8 - 5 8 6 = t 8 & : 2 ,     . =.=.=.=.=.=.=.=.=.=.=.=.=.=.=.=.=.=.=.=.=.=.=.=.=.=.=.=.=.",
"N ~ 7 w 4 M 0 d t G c 9 G ] x 8 G 8 K = p $ = $ & > % 6 6 u w s     . =.=.=.=.=.=.=.=.=.=.=.=.=.=.=.=.=.=.=.=.=.=.=.=.=.=.=.=.=.",
"w , ~ w w 6 4 B R 7 T m c c V - G 4 - - - 1 4 5 = 1 7 2 : 2 B &     . =.=.=.=.=.=.=.=.=.=.=.=.=.=.=.=.=.=.=.=.=.=.=.=.=.=.=.=.=.",
"5 s 5 , 9 s W 2 e c w 6 N m I f 5 i 5 ! - - 5 2 2 2 5 % $ > > X     . =.=.=.=.=.=.=.=.=.=.=.=.=.=.=.=.=.=.=.=.=.=.=.=.=.=.=.=.=.",
"~ s s 9 G R W w 5 e [ [ t } $ _ p { 9 1 - 4 - 1 1 = 1 8 K 2 6 =     . =.=.=.=.=.=.=.=.=.=.=.=.=.=.=.=.=.=.=.=.=.=.=.=.=.=.=.=.=.",
", 6 h 6 8 [ 6 9 o.`  .8 [ } t 6 9 t 9 i n - = 5 8 2 9 $ 8 w & *     . =.=.=.=.=.=.=.=.=.=.=.=.=.=.=.=.=.=.=.=.=.=.=.=.=.=.=.=.=.",
", 6 7 6 R s G [ E T [ } D L k f R 5 t 8 = 1 2 = o 2 = 5 = 5 1 -     . =.=.=.=.=.=.=.=.=.=.=.=.=.=.=.=.=.=.=.=.=.=.=.=.=.=.=.=.=.",
"c 7 V c I r 9 c _ 9 b E [ m w c 5 G - p 9 1 5 = = - 2 2 4 = 4 $     . =.=.=.=.=.=.=.=.=.=.=.=.=.=.=.=.=.=.=.=.=.=.=.=.=.=.=.=.=.",
"K 6 > , w 6 w 6 u m ' B W R 1 t 5 5 - 9 t 8 $ 2 3 2 = 8 1 c % 5     . =.=.=.=.=.=.=.=.=.=.=.=.=.=.=.=.=.=.=.=.=.=.=.=.=.=.=.=.=.",
"                                                                    . =.=.=.=.=.=.=.=.=.=.=.=.=.=.=.=.=.=.=.=.=.=.=.=.=.=.=.=.=.",
"                                                                    . =.=.=.=.=.=.=.=.=.=.=.=.=.=.=.=.=.=.=.=.=.=.=.=.=.=.=.=.=.",
". . . . . . . . . . . . . . . . . . . . . . . . . . . . . . . . . . . =.=.=.=.=.=.=.=.=.=.=.=.=.=.=.=.=.=.=.=.=.=.=.=.=.=.=.=.=.",
"=.=.=.=.=.=.=.=.=.=.=.=.=.=.=.=.=.=.=.=.=.=.=.=.=.=.=.=.=.=.=.=.=.=.=.*.=.=.=.=.=.=.=.=.=.=.=.=.=.=.=.=.=.=.=.=.=.=.=.=.=.=.=.=.",
"=.=.=.=.=.=.=.=.=.=.=.=.=.=.=.=.=.=.=.=.=.=.=.=.=.=.=.=.=.=.=.=.=.=.=.=.*.=.=.=.=.=.=.=.=.=.=.=.=.=.=.=.=.=.=.=.=.=.=.=.=.=.=.=.",
"=.=.=.=.=.=.=.=.=.=.=.=.=.=.=.=.=.=.=.=.=.=.=.=.=.=.=.=.=.=.=.=.=.=.=.=.=.*.=.=.=.=.=.=.=.=.=.=.=.=.=.=.=.=.=.=.=.=.=.=.=.=.=.=.",
"=.=.=.=.=.=.=.=.=.=.=.=.=.=.=.=.=.=.=.=.=.=.=.=.=.=.=.=.=.=.=.=.=.=.=.=.=.=.*.=.=.=.=.=.=.=.=.=.=.=.=.=.=.=.=.=.=.=.=.=.=.=.=.=.",
"=.=.=.=.=.=.=.=.=.=.=.=.=.=.=.=.=.=.=.=.=.=.=.=.=.=.=.=.=.=.=.=.=.=.=.=.=.=.=.*.=.=.=.=.=.=.=.=.=.=.=.=.=.=.=.=.=.=.=.=.=.=.=.=.",
"=.=.=.=.=.=.=.=.=.=.=.=.=.=.=.=.=.=.=.=.=.=.=.=.=.=.=.=.=.=.=.=.=.=.=.=.=.=.=.=.*.=.=.=.=.=.=.=.=.=.=.=.=.=.=.=.=.=.=.=.=.=.=.=.",
"=.=.=.=.=.=.=.=.=.=.=.=.=.=.=.=.=.=.=.=.=.=.=.=.=.=.=.=.=.=.=.=.=.=.=.=.=.=.=.=.=.*.=.=.=.=.=.=.=.=.=.=.=.=.=.=.=.=.=.=.=.=.=.=.",
"=.=.=.=.=.=.=.=.=.=.=.=.=.=.=.=.=.=.=.=.=.=.=.=.=.=.=.=.=.=.=.=.=.=.=.=.=.=.=.=.=.=.*.=.=.=.=.=.=.=.=.=.=.=.=.=.=.=.=.=.=.=.=.=.",
"=.=.=.=.=.=.=.=.=.=.=.=.=.=.=.=.=.=.=.=.=.=.=.=.=.=.=.=.=.=.=.=.=.=.=.=.=.=.=.=.=.=.=.*.=.=.=.=.=.=.=.=.=.=.=.=.=.=.=.=.=.=.=.=.",
"=.=.=.=.=.=.=.=.=.=.=.=.=.=.=.=.=.=.=.=.=.=.=.=.=.=.=.=.=.=.=.=.=.=.=.=.=.=.=.=.=.=.=.=.*.=.=.=.=.=.=.=.=.=.=.=.=.=.=.=.=.=.=.=.",
"=.=.=.=.=.=.=.=.=.=.=.=.=.=.=.=.=.=.=.=.=.=.=.=.=.=.=.=.=.=.=.=.=.=.=.=.=.=.=.=.=.=.=.=.=.*.=.=.=.=.=.=.=.=.=.=.=.=.=.=.=.=.=.=.",
"=.=.=.=.=.=.=.=.=.=.=.=.=.=.=.=.=.=.=.=.=.=.=.=.=.=.=.=.=.=.=.=.=.=.=.=.=.=.=.=.=.=.=.=.=.=.*.=.=.=.=.=.=.=.=.=.=.=.=.=.=.=.=.=.",
"=.=.=.=.=.=.=.=.=.=.=.=.=.=.=.=.=.=.=.=.=.=.=.=.=.=.=.=.=.=.=.=.=.=.=.=.=.=.=.=.=.=.=.=.=.=.=.*.=.=.=.=.=.=.=.=.=.=.=.=.=.=.=.=.",
"=.=.=.=.=.=.=.=.=.=.=.=.=.=.=.=.=.=.=.=.=.=.=.=.=.=.=.=.=.=.=.=.=.=.=.=.=.=.=.=.=.=.=.=.=.=.=.=.*.=.=.=.=.=.=.=.=.=.=.=.=.=.=.=.",
"=.=.=.=.=.=.=.=.=.=.=.=.=.=.=.=.=.=.=.=.=.=.=.=.=.=.=.=.=.=.=.=.=.=.=.=.=.=.=.=.=.=.=.=.=.=.=.=.=.*.=.=.=.=.=.=.=.=.=.=.=.=.=.=.",
"=.=.=.=.=.=.=.=.=.=.=.=.=.=.=.=.=.=.=.=.=.=.=.=.=.=.=.=.=.=.=.=.=.=.=.=.=.=.=.=.=.=.=.=.=.=.=.=.=.=.*.=.=.=.=.=.=.=.=.=.=.=.=.=.",
"=.=.=.=.=.=.=.=.=.=.=.=.=.=.=.=.=.=.=.=.=.=.=.=.=.=.=.=.=.=.=.=.=.=.=.=.=.=.=.=.=.=.=.=.=.=.=.=.=.=.=.*.=.=.=.=.=.=.=.=.=.=.=.=.",
"=.=.=.=.=.=.=.=.=.=.=.=.=.=.=.=.=.=.=.=.=.=.=.=.=.=.=.=.=.=.=.=.=.=.=.=.=.=.=.=.=.=.=.=.=.=.=.=.=.=.=.=.*.=.=.=.=.=.=.=.=.=.=.=.",
"=.=.=.=.=.=.=.=.=.=.=.=.=.=.=.=.=.=.=.=.=.=.=.=.=.=.=.=.=.=.=.=.=.=.=.=.=.=.=.=.=.=.=.=.=.=.=.=.=.=.=.=.=.*.=.=.=.=.=.=.=.=.=.=.",
"=.=.=.=.=.=.=.=.=.=.=.=.=.=.=.=.=.=.=.=.=.=.=.=.=.=.=.=.=.=.=.=.=.=.=.=.=.=.=.=.=.=.=.=.=.=.=.=.=.=.=.=.=.=.*.=.=.=.=.=.=.=.=.=.",
"=.=.=.=.=.=.=.=.=.=.=.=.=.=.=.=.=.=.=.=.=.=.=.=.=.=.=.=.=.=.=.=.=.=.=.=.=.=.=.=.=.=.=.=.=.=.=.=.=.=.=.=.=.=.=.*.=.=.=.=.=.=.=.=.",
"=.=.=.=.=.=.=.=.=.=.=.=.=.=.=.=.=.=.=.=.=.=.=.=.=.=.=.=.=.=.=.=.=.=.=.=.=.=.=.=.=.=.=.=.=.=.=.=.=.=.=.=.=.=.=.=.*.=.=.=.=.=.=.=.",
"=.=.=.=.=.=.=.=.=.=.=.=.=.=.=.=.=.=.=.=.=.=.=.=.=.=.=.=.=.=.=.=.=.=.=.=.=.=.=.=.=.=.=.=.=.=.=.=.=.=.=.=.=.=.=.=.=.*.=.=.=.=.=.=.",
"=.=.=.=.=.=.=.=.=.=.=.=.=.=.=.=.=.=.=.=.=.=.=.=.=.=.=.=.=.=.=.=.=.=.=.=.=.=.=.=.=.=.=.=.=.=.=.=.=.=.=.=.=.=.=.=.=.=.*.=.=.=.=.=.",
"=.=.=.=.=.=.=.=.=.=.=.=.=.=.=.=.=.=.=.=.=.=.=.=.=.=.=.=.=.=.=.=.=.=.=.=.=.=.=.=.=.=.=.=.=.=.=.=.=.=.=.=.=.=.=.=.=.=.=.*.=.=.=.=.",
"=.=.=.=.=.=.=.=.=.=.=.=.=.=.=.=.=.=.=.=.=.=.=.=.=.=.=.=.=.=.=.=.=.=.=.=.=.=.=.=.=.=.=.=.=.=.=.=.=.=.=.=.=.=.=.=.=.=.=.=.*.=.=.=.",
"=.=.=.=.=.=.=.=.=.=.=.=.=.=.=.=.=.=.=.=.=.=.=.=.=.=.=.=.=.=.=.=.=.=.=.=.=.=.=.=.=.=.=.=.=.=.=.=.=.=.=.=.=.=.=.=.=.=.=.=.=.*.=.=.",
"=.=.=.=.=.=.=.=.=.=.=.=.=.=.=.=.=.=.=.=.=.=.=.=.=.=.=.=.=.=.=.=.=.=.=.=.=.=.=.=.=.=.=.=.=.=.=.=.=.=.=.=.=.=.=.=.=.=.=.=.=.=.*.=.",
"=.=.=.=.=.=.=.=.=.=.=.=.=.=.=.=.=.=.=.=.=.=.=.=.=.=.=.=.=.=.=.=.=.=.=.=.=.=.=.=.=.=.=.=.=.=.=.=.=.=.=.=.=.=.=.=.=.=.=.=.=.=.=.*.",
"=.=.=.=.=.=.=.=.=.=.=.=.=.=.=.=.=.=.=.=.=.=.=.=.=.=.=.=.=.=.=.=.=.=.=.=.=.=.=.=.=.=.=.=.=.=.=.=.=.=.=.=.=.=.=.=.=.=.=.=.=.=.=.=.",
"=.=.=.=.=.=.=.=.=.=.=.=.=.=.=.=.=.=.=.=.=.=.=.=.=.=.=.=.=.=.=.=.=.=.=.=.=.=.=.=.=.=.=.=.=.=.=.=.=.=.=.=.=.=.=.=.=.=.=.=.=.=.=.=."
};
