/* XPM */
static char *_69a5cad080842b0a755a693123fcbe9Azcf9GlycTYh8Ssc[] = {
/* columns rows colors chars-per-pixel */
"64 64 72 1 ",
"  c black",
". c #3D3B00",
"X c #6B6800",
"o c #DFD300",
"O c #FDEF03",
"+ c #FFF200",
"@ c #FFF800",
"# c #F2E512",
"$ c #F9ED12",
"% c #F9ED19",
"& c #BFBA7E",
"* c #978986",
"= c #9C8D88",
"- c #96918F",
"; c #9C948D",
": c #9D9692",
"> c #9D9996",
", c #A1948C",
"< c #A3998F",
"1 c #A19691",
"2 c #A89791",
"3 c #A49B95",
"4 c #A99D95",
"5 c #A49E9A",
"6 c #AA9E99",
"7 c #B09F98",
"8 c #ACA096",
"9 c #A6A19D",
"0 c #ACA39C",
"q c #B1A59D",
"w c #B3A99E",
"e c #A6A3A1",
"r c #ACA6A2",
"t c #AEA9A5",
"y c #AEABAA",
"u c #B2A6A2",
"i c #B8A7A4",
"p c #B3AAA4",
"a c #B9ADA5",
"s c #B3ADAA",
"d c #BAAEAA",
"f c #BCB1A6",
"g c #B5B1AD",
"h c #BBB3AD",
"j c #B6B3B2",
"k c #BBB5B2",
"l c #BDB9B5",
"z c #BEBBBA",
"x c #C0B1A7",
"c c #C2B4AD",
"v c #C8B3AD",
"b c #C5B8AE",
"n c #C2B6B2",
"m c #C3BAB4",
"M c #CABCB6",
"N c #C3BDBB",
"B c #CABDB9",
"V c #C5C1BE",
"C c #CBC2BD",
"Z c #D3C4BD",
"A c #D5C9BF",
"S c #C5C2C2",
"D c #CBC5C2",
"F c #CDC8C5",
"G c #CDCBCB",
"H c #D6C5C1",
"J c #D2C9C4",
"K c #D3CDCA",
"L c #D6D1CE",
"P c #DCD2CC",
"I c #D6D3D2",
"U c #DBD6D3",
/* pixels */
"kwhc3hlegsqsf8=8h8h998ws9999qq>VhbVhkjlgjUsp9hzpDAkltq9ws98p48re",
"0s94p48rrphjp0j089wy9s9e9g98tft0zhfbmztspwPVhPw0Am9p80w998>98y0>",
"898>99g0ehkla0q9g0ltg9j>w0:t9gV8hVlVFhglVfV8btUhbgqhq993<88993l4",
"3388993c8jqlsbts85sywywe998w;9bCVVZhhVh0wCwlllVw8sdjt8rtj8l99:el",
"tj8n98:9llfmhws0at9wga0gw9ewy39ffVCJmfwjshgfbhhjkp8ttepg>t;r8g9g",
"j>t;e8g9gsfhahsz9e>4z9t859ws9ywegCshagfmCbN0jhzl8qg0zj4gkhg0rpft",
"gkhsrppgpljhhs0y8f8pgl80s909w5s8swMghbfyhCVfggjygs0fthzfCfFklg9g",
"fCsJjlg9ggpghkha;l;fp<wbw>t9jgtpgwfmcCgrghVglwfwjsgrs8wMCbmmfpft",
"VCVblfwfwllwVlbtgthpw;jl>8thMZsFlSgwbNFlgfkkfhsslagtqwpgtpmVfMgh",
"fw8VVfNkftgyVtgbakgw93te3rpt9gsglhLCfzjhlVlffgwflgh8wlsg0Vtlmhtz",
"g8VylVftzlfFVht0ChpF0gwjtprg9h0hLfSkhr0LjahaahfVgf<tf0ftV9lDslVb",
"pVelCwbVlgCabfVgsbCwstw9hpFqhnzdVhgh9fClgplkkjk0pwVhqktk0lmgllkk",
"hwjlflbkkfgjgNjjVt8t0p2s099la&...      Nhbjsghlafzg9gf8wtVgmhkVf",
"ptVhlbjlhgfwjgzwfptklsgs060XX.+++@+++++   hV9fhhwj9tf9gggbmfwhsa",
"jgVbgebyfgjza3fwklhgpsssy.X@+@++++++++++@+  hkpgjwhwpjffqtppt9ht",
"g0wwwp9hplf0w9tgrlp0jgs .++++O+@+++@@++@@@++  sfsjfgwtt9qqt3398g",
"00qt8>30gaglhah98g0a8q @+++O+++++++@@@+++++@++ Ngw9trt6ptps,3p6r",
"pttg;8t80zajg9s0w9ys  ++++@++++++O@+O++++O++++@  wtt6e95;0hrjpt8",
"9;qjwgrr0aqwhgtt0p9 +++@O++++++O+++OO+++++++++++@ 0trq3ruse803>j",
"w0g980>9gtqhtp9tgp @+++++++++++++++++++O+++++++++@ 35<3k66y3<rpr",
"ps98p4309pe0shgppp +@+++++++++++++++++++++++++O+++ 39typjg08re99",
"098>99g09srssw0;p @+@+@++++O+++O+++++++++++++++++@+ 03gtpp9tfsls",
"43849e3h3rwtpg9t @@+++++++++++++++++++++++++++++O+++ l9pblmVlfsq",
"tg0n98:rz0wlrhr8.@++++++++++++++++++++++++++++++++@+ 0rhgmyjgVVa",
"g>y;09g9gqjq0k5 +O++++++++++++++++++++++++++++O++O++@ p8f0ektftf",
"gkhgqttftt88h3t O++++++O++++++++O++++++++++++++++++@+ 0lstsfwgj9",
"aCsFklg8gewt3s ++O+++++++++++++O+++++O++++++++++++++++ 4wmtftww9",
"mCbbmftftt8g5y ++++++++++++++++++++++++++O++++++++O@++ 69gqawVjt",
"gppnVpVhh0k48p +++++++++++++++++++++++++++++O+++++++@+ sVpwhVg88",
"gqVylMftzw000 ++++++++++++++++++++O++++++++++++++++O@++ gsat898p",
"pV0lCylCljyjk @+++++O+++++O+++++++++++++++++++++++++@+@ 0008t99r",
"hrllfzlhjwp0g +@+++++++++++++++++++++++++++++++++++++++ 3:80qy58",
"ptVhMcjmh340> ++O++++++++++++++++O++++++++++O++++++++@O s4gt>p>t",
"ggbmsrhsadqiu ++++++++++++O++++++++O++O++++++O+++++++++ a0y5k0s3",
"hqtwpt6hs03pp ++++++O++++++++++++++++%@++++O+++++++++++ 0rra4385",
"000s3359sqbsr +$++++++++++++++++++@+++@+O@++O++++++++++ d28;><s0",
"srpf,3s3r80r6 #+++++++++++O+++O++++++@+@+@++++++++++O++ gVphrg8:",
"9;0gwjwt0wF20 ++++++++++++++++++++++@++O+++O++++O++++++ rj3rr009",
"r0ge80:9sph6jr +++++++O++++++++++++@++++++++++++++++O+ 0k0ygVg0r",
"k96y3<rs0hyq9s +++++++++++++++O+++++++++++++++++++O+++ Jjgg800zs",
"uks06p05tdshym ++++++++++++++++++++++++++O++++++++++++ 08ggttqtr",
"ppsetgsliugrs9r ++++++++O++++++++++++++++++++++++++++ shkw0t0gg9",
"6ppuidqti66durt ++++O++++++++++++++++++++++++++++++++ 0ggw08swe9",
"Dpkds4sqi5jyuhsy +++++++++++++++++++++++++++++++O+++ pgh099f8g0w",
"nSyqtianuN66zdj6 +++++++++++++++++++++++++++++++++++ srrqpt6jt>r",
"jdhr63yjnrukFkud0 ++@O+++++++++++++++++++++++O+++++ rej0fststj99",
"mscdg7sdnBnyhuClijo+++++++++++++++++++++++++++++++ piddhk0knpdhh",
"nuSisujidtuNGijlv5 ++O++++++O+++++++++O+++++++++++ assSVmBz5hNVs",
"gIsmn7jzBBnS5lznudj OO++++++++++O++++++++O+++++++ mCnsVNnklBSDSn",
"rGNlCntnGDBkBNBknjnS  +++++++++++++++++++++++++  FHldC0SvdBNSBzi",
"LnDKkiVsznnnnGSndmgiNm ++++++++++++++++++++++O CmmIJkdrVdVdNkBzG",
"BzmPIud0nkDkSyGNGNdInlm o++O++++++++++++++++  ikFhdNkSvsnSkZnSnS",
"BGNdVknCynNyBnSBGhkDxndnt o+O+OO+++O++++++  7SkBnlqtnDshnkkBBzNd",
"BVn0iBFukBknNDSSzmnnBsdSkHF ..$@++++++++  hmsrsdrczCk6ddVNnBGnuz",
"BrdlCj9yjBkdBSkjknzcvDlichHSdl         ryumnnjkiNhjduklyznzldiBi",
"jBNnlrnlidzBzkiGdnDGlihSjuHnJkNnIvzGmktSidjsDjezsukrhNnridiujji0",
"6tpkuNnByiknujiirrssCghnrddFcstjUddNskdmdsrerh0nkukr15yuyte56usr",
"rqNqyrhldyyekzidwkphcNvsNCindhSdnNgdndlh6z=sjujyryd-5u195ys1se6r",
"ukdhyhsrriynlsNt0qsnlsmskNDkjiim4NllnSJ5pphlSenSrjt6idytuee2-gey",
"dsN0upsNurNzsihimtuimjphknszlndudjii9yilsrsutudu>yud5tydjtiury*y",
"ssr40uspgggbzwlwrgqauunjuduin77Bxcjli333ehkplHjjjy6y0rd75t5jrj-3",
"xilcg20lhhnfykmfhpbdNkdn7nliB9l9dd0dHn6llH60Hn5rdi65djeursj96>r5",
"hsjlg09q8hgnVfkNsryxuhSqkkduair09rpn6nm2csPknjuSn561d6u6eyt1drt5",
"ppsus0uarrggklhhqhqrrinnuN7rnNB7dh=MkknkBhSueddyjrudeeeryiu70tr:"
};
